<?xml version="1.0" encoding="UTF-8" standalone="no"?>
<!-- Created with Inkscape (http://www.inkscape.org/) -->

<svg
   width="285.75mm"
   height="285.75mm"
   viewBox="0 0 285.75 285.75"
   version="1.1"
   id="svg445"
   inkscape:version="1.2.2 (732a01da63, 2022-12-09)"
   sodipodi:docname="logo.svg"
   xmlns:inkscape="http://www.inkscape.org/namespaces/inkscape"
   xmlns:sodipodi="http://sodipodi.sourceforge.net/DTD/sodipodi-0.dtd"
   xmlns="http://www.w3.org/2000/svg"
   xmlns:svg="http://www.w3.org/2000/svg">
  <sodipodi:namedview
     id="namedview447"
     pagecolor="#ffffff"
     bordercolor="#000000"
     borderopacity="0.25"
     inkscape:showpageshadow="2"
     inkscape:pageopacity="0.0"
     inkscape:pagecheckerboard="0"
     inkscape:deskcolor="#d1d1d1"
     inkscape:document-units="mm"
     showgrid="false"
     inkscape:zoom="0.18141932"
     inkscape:cx="479.55201"
     inkscape:cy="611.84222"
     inkscape:window-width="1366"
     inkscape:window-height="705"
     inkscape:window-x="1912"
     inkscape:window-y="524"
     inkscape:window-maximized="1"
     inkscape:current-layer="layer1" />
  <defs
     id="defs442" />
  <g
     inkscape:label="Camada 1"
     inkscape:groupmode="layer"
     id="layer1">
    <path
       id="path2941"
       style="fill:#367fa9;fill-opacity:1;stroke:none;stroke-width:15.513;stroke-linecap:round;stroke-linejoin:round;stop-color:#000000"
       d="m 42.475709,35.898077 c -5.084105,-0.01638 -12.181286,2.231983 -12.181286,3.859807 0,1.3187 5.889081,8.231682 10.026616,11.770353 5.244081,4.484678 8.77702,6.144224 13.46983,6.329552 l 3.710387,0.14669 0.07644,4.454211 c 0.07644,4.409658 0.310852,5.619997 2.17742,11.231441 1.764649,5.305614 3.640681,19.896987 3.404448,26.484449 -0.06006,1.69187 0.230227,3.887 0.701601,5.29689 0.442801,1.32422 0.845379,3.59955 0.896339,5.05612 0.129218,3.72968 1.850006,9.38771 3.835419,12.6074 0.928006,1.50499 2.227287,4.39133 2.887393,6.41327 2.379256,7.28844 7.81953,15.4067 13.280734,19.81912 1.847823,1.49304 3.557509,3.08517 3.799566,3.53722 0.241875,0.45203 0.676485,2.29994 0.964951,4.10621 0.288649,1.80635 1.516951,5.68386 2.73033,8.61687 l 2.205447,5.33262 0.31886,7.70458 c 0.324502,7.84386 0.765847,9.7212 2.655892,11.28975 0.977146,0.81038 0.987156,4.54845 0.02912,10.62011 -0.848655,5.37747 -2.302271,9.72257 -3.997943,11.94809 -0.668477,0.8776 -1.775569,2.47878 -2.459516,3.55791 l -1.243227,1.96188 -3.852344,0.17308 c -5.670138,0.25429 -7.948021,0.92746 -10.624843,3.13939 -1.291637,1.06727 -3.112888,2.32391 -4.04781,2.79328 -1.993785,1.00112 -7.933643,1.94776 -12.225694,1.94776 -4.313163,0 -7.525422,1.11485 -11.095852,3.85134 -4.649495,3.56368 -6.10675,4.33053 -8.233211,4.3329 -1.998516,0.002 -5.039334,1.02098 -7.94529,2.6616 l -1.685481,0.9518 5.163456,0.13631 c 4.474777,0.1183 5.649026,-0.0262 8.798314,-1.08347 3.12945,-1.05041 4.486606,-1.22027 9.764357,-1.22264 6.027035,-0.002 9.740698,-0.56066 9.740698,-1.46435 0,-0.25241 -1.376449,-0.45896 -3.058471,-0.45896 -3.093597,0 -6.090735,-0.71986 -6.090735,-1.46248 0,-0.55395 2.882298,-0.8687 10.834504,-1.18315 9.90759,-0.39181 14.811517,-0.80015 14.362347,-1.19538 -0.218762,-0.19234 -2.300451,-0.63463 -4.625289,-0.98282 -6.519703,-0.97648 -5.136339,-1.65474 3.686727,-1.80952 6.158801,-0.1081 7.760199,0.004 8.61395,0.60193 1.662002,1.16403 12.532724,1.00331 17.207517,-0.25395 2.49264,-0.67038 6.29657,-1.1068 12.27902,-1.4098 4.76706,-0.24146 10.29288,-0.58482 12.2792,-0.76274 3.35622,-0.30062 5.7473,0.0295 11.19577,1.54618 1.17643,0.32745 1.06195,-0.65852 -0.12012,-1.03362 -2.02636,-0.64312 -0.82063,-1.20384 2.58837,-1.20384 3.77081,0 6.56083,0.39288 6.56083,0.92358 0,0.17672 -1.00444,0.58964 -2.23183,0.91793 -1.2274,0.32827 -2.13265,0.69668 -2.01071,0.81822 0.12193,0.12158 1.46162,-0.10265 2.97766,-0.49751 1.51604,-0.39488 3.43047,-0.71761 4.25383,-0.71761 2.25641,0 12.1387,1.97305 12.46448,2.48856 0.32541,0.51507 9.9822,2.12406 15.36479,2.56005 8.48782,0.68753 8.84891,1.34274 0.83045,1.50762 -5.73001,0.11793 -11.62692,1.11841 -14.65008,2.48667 -1.81088,0.81962 -1.72753,0.82963 8.0412,0.95179 5.42935,0.0679 10.13982,0.22293 10.46778,0.34423 0.42023,0.15506 0.4681,0.55891 0.1638,1.36089 -0.5409,1.4222 -0.14014,2.10285 1.40593,2.39076 1.84982,0.34275 17.42682,0.38144 18.67842,0.046 0.643,-0.17217 1.51895,-1.1054 2.09352,-2.2318 l 0.98752,-1.93649 7.77876,0.32918 c 4.27822,0.18108 8.64562,0.42704 9.70503,0.54643 1.59557,0.17981 1.34696,0.0164 -1.44543,-0.95462 -1.85401,-0.64454 -4.61164,-1.42691 -6.12932,-1.73898 -1.51786,-0.31208 -2.64369,-0.75708 -2.49992,-0.98845 0.40859,-0.66093 6.66621,-0.49262 10.97374,0.29531 2.15376,0.39388 6.84165,1.17155 10.417,1.7277 3.57552,0.55615 7.69249,1.33703 9.1492,1.73522 1.59976,0.43732 5.69835,0.81353 10.35203,0.95083 7.69359,0.22695 7.70341,0.22606 6.54027,-0.70914 -2.95291,-2.37346 -6.96524,-3.93076 -10.87309,-4.22001 -2.11882,-0.15688 -4.93578,-0.56933 -6.25999,-0.91698 -1.32422,-0.34765 -3.3837,-0.76838 -4.57542,-0.93487 -2.96729,-0.41459 -3.74461,-0.92959 -2.91288,-1.93177 0.91745,-1.10533 0.37656,-4.70168 -1.46999,-9.76145 -1.8218,-4.9911 -4.72612,-16.21335 -6.24398,-24.12661 -1.82161,-9.49852 -1.55899,-8.91099 -5.91383,-13.23848 -2.31829,-2.30383 -4.40471,-4.87946 -5.01476,-6.19223 -0.57457,-1.23617 -2.13447,-3.91876 -3.46761,-5.9609 -2.79348,-4.27918 -3.13782,-5.59062 -1.0665,-4.05918 0.81407,0.60183 2.4435,1.11559 4.07329,1.28377 l 2.71613,0.28028 2.9278,-2.83467 c 2.73033,-2.64275 2.97584,-3.06162 3.6314,-6.20447 0.89943,-4.30839 0.88851,-8.05276 -0.04,-13.483 -1.01719,-5.95169 -1.87258,-8.36039 -4.10059,-11.54086 -1.04995,-1.49891 -2.22146,-3.47269 -2.6033,-4.38649 -1.46653,-3.51013 -10.07302,-13.05389 -14.94364,-16.57159 -10.53257,-7.60709 -18.8768,-10.08129 -44.7829,-13.27608 -11.76942,-1.451413 -16.16339,-2.384133 -21.44333,-4.553909 -9.18924,-3.77627 -11.01395,-4.299659 -15.04702,-4.313127 -3.63176,-0.01274 -3.81995,-0.07061 -6.16972,-1.92801 -1.33295,-1.053603 -3.33092,-2.145753 -4.44002,-2.427431 -3.09432,-0.785811 -3.77736,-1.289817 -6.06525,-4.476778 -3.23919,-4.512378 -3.98939,-6.615543 -4.40999,-12.357224 -0.20402,-2.786694 -0.6166,-6.315319 -0.91708,-7.840933 -0.30084,-1.525596 -0.41405,-2.988274 -0.25207,-3.250369 0.16198,-0.262095 1.14659,-0.475888 2.18761,-0.475888 4.85188,0 12.21041,-4.693774 18.17229,-11.590722 5.00457,-5.789237 5.06135,-6.785365 0.47592,-8.29802 -7.72798,-2.549132 -13.38629,-2.155981 -20.66747,1.435215 -6.195201,3.055577 -6.85476,3.097182 -10.583347,0.670571 -4.464403,-2.905393 -7.303749,-3.645377 -13.986157,-3.645377 -5.071547,0 -5.760773,0.105558 -7.082986,1.08345 -0.805521,0.595897 -1.918073,1.08345 -2.471528,1.08345 -1.231578,0 -3.624666,1.192558 -5.450284,2.71617 -0.748557,0.624835 -1.774296,1.136121 -2.279703,1.136121 -0.50559,0 -3.022072,-1.103288 -5.592243,-2.451873 -4.903381,-2.572774 -9.209082,-3.785079 -13.494218,-3.79962 z M 0,38.962226 V 249.85127 l 27.273626,-20.833 c 3.582624,-2.02271 6.930107,-3.45235 11.427998,-3.67546 0.280094,-0.15397 1.52423,-0.9597 3.689457,-2.6193 4.715013,-3.6138 10.74769,-5.7267 16.628945,-5.7267 1.476911,0 3.714391,-0.19545 5.545287,-0.48717 1.227029,-0.1955 2.439861,-0.59502 2.795121,-0.67341 0.521059,-0.3555 1.631973,-1.07573 2.138654,-1.49446 3.718941,-3.07295 9.163947,-4.64452 15.049934,-5.05516 l -1.218838,1.92331 c 0.40822,-0.64402 0.886874,-1.27811 1.34387,-1.94401 0.294109,-0.0195 0.541626,-0.12921 0.8381,-0.14195 l -0.763663,0.0348 c 0.506682,-0.73513 0.99207,-1.50041 1.486921,-2.15 -0.245332,0.32207 1.528053,-3.30964 2.244942,-7.85221 0.398029,-2.52127 0.527429,-4.29924 0.551089,-5.36085 -1.062503,-1.61447 -1.972127,-3.38467 -2.363422,-5.04765 -0.691227,-2.93854 -0.8108,-5.64566 -0.978238,-9.70783 l -0.248244,-6.09256 -1.592298,-3.84195 c -1.467083,-3.54626 -2.706487,-6.88206 -3.309628,-10.65678 v -0.004 c -0.04914,-0.3023 -0.109198,-0.55209 -0.167438,-0.85303 -0.426056,-0.3758 -0.828635,-0.73965 -1.329857,-1.1446 -7.407305,-5.98479 -13.181545,-14.79219 -16.212171,-24.07583 -0.359627,-1.10182 -1.792131,-4.15117 -1.983592,-4.46173 -3.251753,-5.2732 -4.966717,-10.86148 -5.182202,-17.06536 0,-0.11393 -0.459908,-2.56425 -0.434428,-2.48854 -1.016639,-3.0382 -1.27271,-5.49621 -1.165332,-8.505884 0.156518,-4.382394 -2.14648,-20.890057 -2.943812,-23.286766 -1.312203,-3.9448 -1.896234,-6.865425 -2.242939,-9.792476 l -0.337788,-0.539841 c -4.914119,-1.233399 -9.665169,-3.963801 -14.132847,-7.784514 -2.672636,-2.285673 -5.315061,-5.077462 -7.578566,-7.734665 -1.131843,-1.328601 -2.137562,-2.588425 -3.025529,-3.868269 -0.444074,-0.639922 -0.858119,-1.263956 -1.304377,-2.114231 -0.446441,-0.850275 -1.30456,-1.418253 -1.30456,-4.96961 0,-0.278584 0.0273,-0.534728 0.04732,-0.796604 z m 136.16083,0 c 0.21512,0.595333 0.39676,1.18708 0.36291,1.773768 -0.2073,3.615784 -1.5519,5.343087 -2.58073,6.845897 -1.02883,1.502827 -2.12555,2.798105 -3.45541,4.33664 -3.52384,4.077021 -7.41932,7.505166 -11.49188,10.102855 -1.9097,1.217983 -3.85234,2.26598 -5.90819,3.085771 0.1183,1.162419 0.31613,2.183371 0.40167,3.354763 0.37492,5.116774 -0.12012,3.749043 2.72651,7.713971 0.39875,0.555566 0.58021,0.800135 0.647,0.897231 0.0564,0.01456 0.0473,0.01092 0.26608,0.06588 4.01723,1.020242 5.43591,2.207613 7.83536,4.104339 0.0382,-0.01456 0.15652,-0.02876 0.56438,-0.0273 2.40564,0.0073 5.22679,0.280986 8.06559,1.094734 2.8388,0.813748 5.7575,1.986832 10.41136,3.899319 4.48624,1.8436 7.52342,2.511695 19.09592,3.938811 26.23697,3.235519 37.37468,6.538813 48.99723,14.933245 3.5395,2.55632 6.94467,5.981 10.17986,9.56863 3.23519,3.58765 5.78735,5.97952 7.83063,10.87029 -0.37382,-0.89467 0.93893,1.64331 1.66001,2.67291 2.8388,4.05223 4.52937,8.84368 5.62045,15.22854 v 0.004 c 1.04139,6.10169 1.09271,11.51678 -0.0255,16.8735 -0.71653,3.4286 -3.33147,8.098 -6.21013,10.88439 l -2.18943,2.11894 c 0.53562,0.65949 0.88123,1.15221 2.10772,2.37101 2.09625,2.083 4.30497,4.0724 5.80099,7.42147 1.4962,3.34912 1.73207,5.85415 2.63423,10.55805 1.41322,7.36737 4.47114,18.92735 5.85469,22.71775 v 0.004 c 0.88542,2.42601 1.42176,4.58516 1.85182,6.76876 0.28738,0.0704 0.58895,0.10374 0.87086,0.17782 -0.0309,-0.009 3.08104,0.52937 4.62074,0.6433 5.84832,0.43288 11.32863,2.52493 15.90387,6.20259 0.14742,0.11885 0.36945,0.28042 0.85302,0.72888 0.48357,0.44847 1.53825,0.74154 2.6306,4.03098 0.54617,1.64471 0.68722,4.60016 -0.46282,6.95311 -0.46428,0.94999 -1.02483,1.70121 -1.60158,2.30704 2.67518,1.89438 8.02992,5.66462 8.02992,5.66462 H 285.75 V 38.963154 Z m -56.451672,0.986573 h 0.0182 c 0.92109,0.0012 1.739351,0.06734 2.316466,0.213502 1.076334,0.27276 2.607117,0.594804 3.401719,0.714777 2.620584,0.395681 5.754948,1.797173 7.263527,3.248477 2.559979,2.462774 4.123339,2.365151 10.65105,-0.666803 6.62508,-3.076944 10.35112,-3.756068 15.09125,-2.750022 l 2.84881,0.604742 -1.96085,2.46505 c -2.70885,3.404357 -6.91154,6.915857 -10.01351,8.367616 -3.5313,1.652684 -8.23794,1.74665 -10.716932,0.214429 -2.45442,-1.516823 -2.929434,-1.319283 -1.727704,0.717599 0.682492,1.156704 1.084525,2.715569 1.148224,4.454211 0.186547,5.045012 0.561463,7.975011 1.379724,10.78753 0.705788,2.426157 0.745828,3.437226 0.289741,7.304841 -0.706697,5.991036 -0.636082,7.297069 0.240782,4.445748 0.386745,-1.258023 0.861575,-2.287292 1.055225,-2.287292 0.19383,0 1.59066,2.253841 3.1036,5.009104 2.87065,5.227774 3.94317,8.559915 3.46961,10.776228 l -0.28028,1.309182 0.9968,-1.137067 c 0.58822,-0.67088 0.99699,-1.80569 0.99699,-2.76884 0,-1.601125 0.99043,-2.276336 1.68639,-1.150225 0.16379,0.264843 0.92345,0.481529 1.69003,0.481529 3.17203,0 5.6583,2.617017 5.10685,5.374956 l -0.28774,1.438964 1.69295,-1.045831 c 3.68982,-2.280504 10.13399,-1.555589 17.06064,1.919566 4.45949,2.23741 8.78994,3.18187 23.37141,5.09937 11.77853,1.549 26.12486,4.17388 30.09587,5.50664 4.44256,1.49094 14.80332,7.19027 13.98797,7.69422 -0.27609,0.17053 0.7229,1.05655 2.21965,1.96845 5.83721,3.55664 7.4943,6.08615 3.61811,5.52356 l -1.76811,-0.25677 1.92609,0.9518 c 1.05922,0.52333 2.16668,0.95709 2.46042,0.964 0.68413,0.0164 5.00348,3.80372 5.00348,4.38744 0,0.24233 -0.44516,0.44109 -0.98861,0.44109 -0.76639,0 -0.27937,0.67765 2.16705,3.01807 3.08995,2.95613 3.95717,4.68649 2.34922,4.68649 -0.69232,0 -0.66301,0.15324 0.20803,1.08347 1.26015,1.34591 3.96882,8.27784 3.96882,10.15738 0,1.14688 -0.16744,1.34797 -0.94803,1.14366 -0.94274,-0.24652 -0.94274,-0.23778 0,1.61013 0.94093,1.8444 1.25069,4.32173 0.6188,4.95361 -0.182,0.18127 -1.07288,-0.37795 -1.98159,-1.24335 -1.56882,-1.49418 -1.63234,-1.51273 -1.24905,-0.36962 0.22185,0.66211 0.41677,2.05626 0.41677,3.09802 0.0182,1.62749 -0.20384,2.02152 -1.52751,2.79892 -1.95702,1.14932 -3.02771,0.64422 -4.70427,-2.21677 -1.58011,-2.69101 -1.58429,-5.26209 -0.0182,-8.20867 1.77211,-3.33273 1.52295,-4.204 -0.51924,-1.81798 -0.94766,1.10704 -1.92262,2.01266 -2.16687,2.01266 -0.67466,0 -0.53325,-2.10178 0.35745,-5.30534 0.43279,-1.58562 0.63535,-3.04479 0.43261,-3.24285 -0.20293,-0.19807 -1.16497,0.56073 -2.13866,1.68631 -0.9735,1.12559 -1.92481,2.04653 -2.11336,2.04653 -0.18745,0 -0.22567,-2.00445 -0.0819,-4.45419 0.24296,-4.16074 0.21421,-4.35541 -0.43916,-2.94753 -0.88633,1.9104 -1.68367,2.41309 -2.0493,1.29224 -0.92782,-2.84406 -3.2381,-6.82862 -4.50044,-7.76194 -1.78922,-1.32276 -1.80778,-1.1263 -0.20311,2.15374 1.20173,2.45602 2.02546,6.83412 2.89777,15.3988 0.34944,3.42975 -0.0346,5.54382 -0.94238,5.19531 -0.45809,-0.17563 -0.56784,0.21259 -0.42224,1.46437 0.28264,2.42204 -0.25243,4.76453 -1.42959,6.2609 l -1.01482,1.28942 -0.90198,-1.84338 c -0.78022,-1.5945 -0.86613,-1.65693 -0.63481,-0.46273 0.14742,0.75922 0.39749,2.05937 0.55764,2.88921 l 0.28974,1.50951 -1.01955,-1.20384 -1.01955,-1.20385 -0.0182,2.16692 c -0.0182,2.40581 1.94301,10.2383 3.16476,12.65254 0.43224,0.85398 2.06513,3.11228 3.6294,5.01849 1.56445,1.90621 3.12963,4.28983 3.47797,5.2969 0.48812,1.41215 0.6097,6.10908 0.53144,20.53108 -0.0892,16.37881 -0.19602,18.79532 -0.86813,19.4674 -0.70215,0.70208 -0.79333,0.68854 -1.06651,-0.16088 -0.1638,-0.51051 -0.48248,-1.36166 -0.70724,-1.89134 -0.38493,-0.90753 -0.41022,-0.8994 -0.44116,0.15142 -0.0364,1.24425 -0.87268,3.04491 -1.64763,3.5485 -0.27882,0.18127 -1.16715,0.21119 -1.97413,0.0668 l -1.46726,-0.2624 1.20391,0.86809 c 1.67056,1.20481 1.89678,1.64808 1.43323,2.80644 -0.22185,0.55408 -0.52306,1.57297 -0.67048,2.26473 -0.22804,1.0762 -0.58931,1.3021 -2.50738,1.56499 -4.00777,0.5482 -12.69579,0.1103 -12.69579,-0.64048 0,-0.22448 1.4123,-2.52052 3.13837,-5.10222 1.72606,-2.58167 3.512,-5.90606 3.969,-7.38761 1.478,-4.79182 0.98115,-19.85496 -0.90853,-27.56133 -0.27227,-1.11004 -1.66619,-3.14319 -3.79684,-5.53766 -5.65157,-6.35141 -9.20599,-10.86704 -10.25902,-13.03436 -1.21484,-2.4999 -1.80979,-2.67502 -1.29219,-0.37998 0.2093,0.92695 0.28392,1.68537 0.16744,1.68537 -0.71325,0 -5.48341,-3.49421 -6.63891,-4.8633 -1.58829,-1.8818 -4.10514,-6.95663 -4.1561,-8.37892 l -0.0346,-0.96306 -0.39512,0.96306 c -0.21657,0.52969 -0.27627,1.58746 -0.13285,2.35125 0.39639,2.11263 -0.75948,1.39954 -2.37962,-1.46812 -0.98261,-1.73914 -1.52933,-3.62125 -1.91189,-6.58442 -0.29447,-2.28218 -0.69523,-4.05022 -0.8907,-3.92941 -0.19546,0.12085 -0.5156,1.14457 -0.71197,2.27601 l -0.35744,2.05781 -0.63481,-1.4446 c -1.19227,-2.7123 -1.80123,-7.99014 -1.47273,-12.75975 0.44444,-6.45098 1.88186,-10.71923 5.02787,-14.92856 l 1.25924,-1.68537 -1.43523,0.90476 c -4.20542,2.65213 -7.53835,7.44121 -8.41557,12.09013 -0.67158,3.55982 -1.74918,4.69292 -5.19895,5.46804 -1.81852,0.40859 -5.75094,0.0279 -6.87332,-0.66587 -1.10382,-0.68215 -0.3094,0.77403 0.87577,1.60544 1.82434,1.27997 4.56814,2.10675 7.11756,2.14528 1.84619,0.0278 2.06022,0.13249 1.54535,0.75334 -1.36335,1.64402 -5.34291,2.28174 -8.10909,1.88382 -8.08161,0.9394 -13.67203,-1.29757 -15.83416,-2.38886 -0.43425,-0.0943 -0.73309,-0.26572 -0.95567,-0.53046 -0.0182,-0.005 -0.04,-0.0255 -0.04,-0.0255 l 0.0182,-0.0164 c -0.33452,-0.43012 -0.4752,-1.10659 -0.55382,-2.20736 -0.14196,-1.99388 -0.33433,-2.27355 -2.55634,-3.72439 -1.32112,-0.86265 -2.82843,-1.5678 -3.35003,-1.5678 -0.77604,0 -0.58021,0.37512 1.07779,2.0644 4.25747,4.33805 1.51804,7.538 -4.55304,5.31852 -1.53096,-0.55964 0.72763,1.68188 3.08777,3.06508 1.85219,1.08541 2.04748,1.37854 2.04748,3.07356 0,1.0304 -0.22604,2.79719 -0.50141,3.92658 -0.27536,1.12939 -0.79132,3.46261 -1.14731,5.18402 -0.35599,1.72148 -1.25087,4.64682 -1.98814,6.50074 -0.73709,1.8539 -2.48918,7.91954 -3.89384,13.47924 -1.48146,5.86507 -2.85627,10.329 -3.27378,10.63421 -0.51232,0.37461 -0.5702,0.67498 -0.2022,1.04301 0.52543,0.52536 0.42297,1.96764 -0.55582,7.82873 -0.28755,1.72149 -0.67812,4.86352 -0.86813,6.98226 -0.19018,2.11877 -0.63153,4.36009 -0.98096,4.98088 l -0.63572,1.1286 -1.16897,-1.0985 c -0.90198,-0.84738 -1.30001,-0.96763 -1.74099,-0.52668 -0.31431,0.31429 -1.1242,0.57275 -1.79905,0.57371 -1.20319,0.002 -1.19591,0.0206 0.33761,0.95554 2.67827,1.63301 1.8622,4.52887 -1.48893,5.28467 -2.0502,0.46242 -12.649381,0.84662 -13.023932,0.47212 -0.29156,-0.29151 0.93474,-2.36366 4.701546,-7.9491 3.895842,-5.77586 5.350546,-9.23115 6.592866,-15.65272 1.00026,-5.17152 1.09817,-7.32701 0.79569,-17.5422 -0.0182,-0.52968 0.33361,-3.93266 0.77586,-7.5616 0.92691,-7.60696 1.03102,-14.65136 0.28028,-18.96328 -0.4661,-2.6763 -3.09669,-7.89424 -7.140318,-14.16486 -0.942566,-1.46174 -0.540534,3.37411 0.440252,5.29689 0.529795,1.03828 0.964042,2.00917 0.964042,2.15751 0,0.77671 -3.997761,-1.93485 -5.693798,-3.8617 -1.990326,-2.26121 -3.764076,-6.42788 -3.276686,-7.69797 0.147418,-0.38423 0.03458,-0.64711 -0.252067,-0.58407 -0.43643,0.0963 -1.408662,-2.09084 -2.17924,-4.90187 -0.141958,-0.51736 -0.32159,-0.54728 -0.744734,-0.12412 -0.403125,0.40227 -0.432609,1.3326 -0.105559,3.33125 0.530341,3.2424 0.368727,5.06831 -0.426056,4.81347 -1.806327,-0.57908 -9.904132,-14.23176 -9.377795,-15.81074 0.09282,-0.27709 0.98661,0.14706 1.987233,0.94239 2.590555,2.0587 4.195228,2.29204 6.803619,0.98939 2.278247,-1.13779 5.727831,-4.31849 3.874913,-3.57294 -0.529614,0.21314 -2.215094,0.73056 -3.744057,1.15023 -2.721593,0.74675 -2.826788,0.73858 -4.922673,-0.37339 -2.857545,-1.51593 -6.742286,-5.69878 -8.200269,-8.83035 -1.945009,-4.17795 -1.503847,-5.37726 1.006447,-2.73684 3.783914,3.97991 8.699671,3.85287 12.743659,-0.33011 1.971945,-2.03994 2.029638,-2.16606 0.688498,-1.49163 -0.80534,0.40509 -2.804221,1.01396 -4.442928,1.35242 -2.61112,0.53933 -3.185505,0.51764 -4.643306,-0.17781 -1.725884,-0.82298 -4.71192,-4.47303 -6.454548,-7.88891 -1.006629,-1.97287 -2.523216,-9.857792 -2.464976,-12.809594 0.0273,-1.42264 0.197831,-1.229304 1.80669,2.05499 1.994877,4.071707 3.525659,6.209744 5.06445,7.072534 2.1574,1.2098 8.180249,0.38852 9.19525,-1.253668 0.228407,-0.369528 -0.514507,-0.437832 -2.498828,-0.230427 -4.110417,0.429605 -6.857126,-1.208137 -6.857126,-4.087413 0,-0.826743 0.440616,-1.001643 3.250296,-1.290364 6.456368,-0.66349 10.803382,-3.792613 12.626271,-9.090856 1.358431,-3.948768 1.219202,-4.699381 -0.403489,-2.181971 -2.627136,4.076039 -5.221695,5.782722 -9.789655,6.440552 -4.358662,0.627729 -7.862299,-1.183094 -10.579707,-5.468065 l -1.363708,-2.150922 -0.02002,1.659983 -0.0182,1.659036 -0.647001,-1.203842 c -0.35617,-0.662107 -1.023555,-2.503996 -1.483281,-4.093054 -0.459909,-1.589059 -1.569002,-5.208465 -2.464067,-8.043151 -1.286906,-4.075874 -1.627059,-5.964446 -1.627059,-9.028777 0,-3.976231 0.28246,-4.593531 1.332769,-2.911799 0.379465,0.607672 1.122743,0.963077 2.014532,0.963077 0.906712,0 1.70095,0.388219 2.215822,1.08345 0.786776,1.062503 0.797878,1.046214 0.526519,-0.842686 -0.380375,-2.647356 -2.718135,-4.79127 -4.774891,-4.379901 -2.619493,0.52388 -3.533303,-1.224444 -1.795407,-3.43375 0.529613,-0.673392 0.962222,-1.845438 0.962222,-2.604259 0,-1.37432 -0.0182,-1.379707 -3.071757,-1.379707 -2.923429,0 -3.209711,-0.10756 -5.899637,-2.223338 -3.804297,-2.992296 -7.127575,-4.514234 -9.807673,-4.489009 l -2.166864,0.02075 3.064113,1.138013 c 3.344753,1.24208 9.712852,5.371443 9.554514,6.195055 -0.0546,0.285664 1.178799,0.683292 2.778376,0.895356 3.951352,0.523789 4.034161,0.579499 2.426393,1.629898 -1.093988,0.714705 -2.253495,0.921127 -5.075915,0.904747 -3.1431,-0.0182 -3.991755,-0.216668 -6.034133,-1.413557 -3.369333,-1.974601 -11.946701,-10.378817 -11.276586,-11.04895 0.310124,-0.310252 2.779833,-0.517274 6.16499,-0.517274 h 5.64757 l 4.899195,2.533699 c 2.694476,1.393738 5.877433,2.668049 7.07243,2.831847 2.017626,0.276546 2.408921,0.13577 5.495419,-1.973164 1.90952,-1.304705 3.730771,-2.202299 4.278402,-2.109535 0.523607,0.08881 1.298371,-0.125214 1.72097,-0.475906 0.891606,-0.739984 4.591619,-1.323359 7.365992,-1.32234 z m 36.474522,2.722758 c -0.48648,0.0073 -1.15787,0.05533 -1.89606,0.141958 -2.97002,0.349072 -5.72582,1.581942 -8.60648,3.849451 -1.0454,0.822903 -3.28415,1.96179 -4.97527,2.530896 -1.691127,0.569125 -2.786025,1.150408 -2.433131,1.291292 2.183791,0.871678 6.712981,-0.285081 7.932191,-2.025834 1.01645,-1.451122 5.0204,-3.764094 7.99807,-4.61972 1.52295,-0.437595 2.76873,-0.918324 2.76873,-1.068417 0,-0.07498 -0.30157,-0.107379 -0.78805,-0.09974 z M 95.051562,56.614454 c -1.188627,-0.05879 -2.763453,0.219198 -3.544769,0.766501 -0.93019,0.651479 -2.464066,3.299909 -2.464066,4.254815 0,0.44462 0.893244,0.277983 1.203914,-0.224786 0.163798,-0.26477 1.140216,-0.481529 2.170505,-0.481529 1.570457,0 2.078959,-0.26912 3.143281,-1.664678 0.698325,-0.915503 1.130388,-1.890629 0.95931,-2.166919 -0.180178,-0.291743 -0.754926,-0.44817 -1.468175,-0.483404 z M 83.342377,76.348007 c -0.758748,0.0055 -1.66819,0.239345 -2.273151,0.696905 -0.513961,0.388856 -1.801595,0.707261 -2.861003,0.707261 -1.059408,0 -2.34686,-0.318405 -2.861003,-0.707261 -1.046305,-0.79138 -2.956371,-0.940928 -3.374601,-0.264279 -0.151058,0.24344 0.973687,1.272728 2.49901,2.287292 2.350318,1.563451 2.773462,2.06551 2.773462,3.289863 0,1.326545 -0.151058,1.456946 -1.839632,1.596029 -1.011725,0.08335 -2.149211,-0.106105 -2.527948,-0.420397 -0.438978,-0.364341 -0.688497,-0.388037 -0.688497,-0.06588 0,0.278038 0.570745,0.95496 1.268706,1.503865 2.646064,2.081398 12.214228,0.758712 12.214228,-1.688192 0,-0.662417 -0.111019,-0.661125 -1.070329,0.01092 -1.978496,1.385767 -5.200219,0.847545 -5.182019,-0.867146 0.0182,-1.45054 0.404944,-1.898254 3.002051,-3.406487 1.257968,-0.730557 2.287165,-1.633047 2.287165,-2.005141 0,-0.452519 -0.60769,-0.673155 -1.366439,-0.666822 z m 31.505803,5.199073 c 0.12012,0.06697 0.22859,0.136134 0.34142,0.205966 0.21349,0.04022 0.42169,0.08572 0.63281,0.135407 -0.43661,-0.232593 -0.68449,-0.326832 -0.97423,-0.341392 z m 17.64285,61.94691 c -0.0619,0.0601 -0.10374,0.13541 -0.10374,0.237 z m -3.71785,14.90315 c 0.5369,0.0182 2.54033,0.41412 4.8426,0.96496 6.4358,1.53968 10.48816,2.16708 16.96,2.62681 4.65095,0.33038 7.12066,0.9834 6.33151,1.67408 -0.11465,0.10047 -1.94228,0.297 -4.06109,0.43733 -4.81948,0.31918 -13.1386,-0.6614 -17.43593,-2.055 -3.08941,-1.00184 -7.19964,-3.20587 -6.7734,-3.6322 0.0182,-0.0127 0.0601,-0.0187 0.1365,-0.0164 z m 4.14955,8.46919 c 0.16562,3.5e-4 1.24869,0.34008 2.40765,0.75522 3.86199,1.3834 10.51564,2.20117 16.82168,2.06722 l 6.04833,-0.12794 5.75877,5.75586 c 4.16902,4.167 6.83729,6.38751 9.66826,8.04408 3.04537,1.7819 5.09903,3.54826 9.28079,7.98578 2.95364,3.13405 5.70453,6.17747 6.11421,6.76218 1.42504,2.03448 2.58073,9.48362 2.58073,16.73148 0,3.74091 -0.12922,7.47885 -0.29429,8.30648 -0.28101,1.40523 -0.43243,1.50141 -2.28735,1.45215 -1.09235,-0.0289 -2.96128,-0.25553 -4.15319,-0.50317 -1.19172,-0.24765 -3.90039,-0.32471 -6.0192,-0.17126 -2.60967,0.18911 -4.93869,0.0437 -7.22204,-0.45145 -1.85401,-0.40198 -4.52355,-0.7345 -5.93185,-0.73924 -2.39054,-0.007 -2.53941,-0.0766 -2.23638,-1.03172 0.49012,-1.54402 -0.46646,-1.85096 -5.79736,-1.85842 -4.22016,-0.005 -10.87873,-0.48954 -17.45558,-1.26874 -2.3656,-0.28026 -2.44987,-0.59384 -1.02428,-3.81655 1.36407,-3.0838 1.04758,-6.47072 -1.27999,-13.70213 -1.8784,-5.83639 -3.31891,-12.7739 -4.15046,-19.98372 -0.71397,-6.19471 -1.18153,-14.20718 -0.82845,-14.20623 z m 9.73123,11.50888 c 0.0582,0.56387 0.0801,1.11971 0.14196,1.6534 v 0.004 c 0.77058,6.68022 2.12209,13.11027 3.77154,18.23534 1.25396,3.89556 2.11681,7.05345 2.42457,10.34737 0.0437,0.48494 -0.0619,0.99295 -0.0437,1.4888 3.10124,0.23365 6.84767,0.63866 8.73061,0.64048 2.83935,0.004 4.3614,-0.33154 7.84483,0.78532 1.04157,0.33393 2.50939,1.27359 3.90294,2.55252 1.35516,0.16562 2.75581,0.19943 4.1308,0.49753 1.39156,0.30164 2.75399,0.4066 4.63858,0.26992 1.4629,-0.10611 2.96183,0.14815 4.30843,0.17017 v -0.18054 c 0,-3.14026 -0.26754,-6.44769 -0.65101,-8.93003 -0.21221,-1.38027 -0.7622,-2.70669 -0.94329,-3.24285 -0.26117,-0.31422 -0.47756,-0.58882 -0.7411,-0.88031 -1.05358,-1.16529 -2.44604,-2.67427 -3.88146,-4.19745 -3.98848,-4.23237 -4.93268,-5.01498 -7.25497,-6.37375 -1.15259,-0.67449 -2.27206,-1.57692 -3.39517,-2.40674 l -0.6612,3.7968 -2.92488,-6.66155 c -1.44033,-1.27015 -2.86738,-2.53325 -4.52574,-4.19088 l -3.01424,-3.01054 -2.16414,0.0461 c -3.32473,0.0706 -6.56156,-0.0826 -9.69283,-0.41288 z m -22.85508,12.0873 c 0.46154,0 3.73204,9.215 4.43637,12.49924 0.82645,3.85289 0.3407,7.93636 -1.39192,11.69792 l -1.49729,3.25037 h -3.67453 -3.67363 l 0.3387,-2.04653 c 0.18655,-1.1256 0.53125,-2.41212 0.76548,-2.85818 0.23405,-0.44608 0.42606,-1.63787 0.42697,-2.64845 10e-4,-1.82052 1.16406,-8.34033 2.6457,-14.83825 1.02101,-4.47785 1.20665,-5.05612 1.62415,-5.05612 z m 93.83636,9.6307 h 10e-4 c 0.75966,0.004 4.75597,8.54177 6.62199,14.14794 1.17079,3.51754 1.83563,6.5413 2.02308,9.19996 0.1547,2.17815 0.0874,4.04594 -0.14741,4.15042 -0.23533,0.10447 -2.29026,0.12758 -4.56705,0.0517 l -4.14009,-0.13832 -0.30175,-6.36247 c -0.16562,-3.49945 -0.10192,-9.34955 0.1456,-13.00053 0.2457,-3.6509 0.32578,-6.9555 0.17654,-7.34341 -0.14924,-0.38736 -0.0637,-0.70455 0.188,-0.70539 z m -96.91922,28.43224 c -2.33121,0.004 -3.59518,0.3165 -6.83183,1.33363 -2.59074,0.81413 -5.79353,1.6343 -7.11775,1.82269 l -2.40764,0.34233 1.68529,0.61133 c 2.28499,0.82793 6.74648,0.82868 10.04282,0.002 1.49493,-0.37486 3.69291,-0.81755 4.88482,-0.98375 l 2.16704,-0.30191 -2.40674,2.24874 c -2.45332,2.29184 -2.34922,2.25655 2.84863,-0.97531 2.20108,-1.36895 2.66772,-1.46915 6.62126,-1.41827 2.33903,0.03 4.25292,-0.10428 4.25292,-0.29813 0,-0.76142 -6.27382,-2.07932 -10.93988,-2.29857 -1.12693,-0.053 -2.02199,-0.0859 -2.79894,-0.0846 z m 38.91875,2.00138 c -2.23585,-0.057 -4.51082,0.36842 -6.44054,1.25369 l -2.12646,0.97529 7.58421,0.0413 c 4.17139,0.0224 7.58421,-0.14669 7.58421,-0.37526 0,-0.22859 -1.21648,-0.79831 -2.70303,-1.2659 -1.22994,-0.38686 -2.55689,-0.59499 -3.89839,-0.62921 z m -70.375593,1.96941 c -2.03801,0.0679 -4.031613,0.72204 -7.236228,2.0042 -2.34686,0.93894 -4.99893,1.82977 -5.893266,1.97975 -0.894519,0.14997 -2.167775,0.4026 -2.829882,0.56053 -1.198819,0.286 -1.197909,0.28794 0.240783,0.63296 0.794602,0.19053 1.610861,0.37214 1.814153,0.40348 0.203291,0.0313 2.478444,-0.42106 5.056077,-1.0054 4.03234,-0.91416 5.96279,-1.05182 13.835827,-0.98845 5.032054,0.0406 8.932446,-0.007 8.66764,-0.1072 -0.264807,-0.0995 -3.034994,-0.98408 -6.155708,-1.96563 -3.379151,-1.06299 -5.461568,-1.58201 -7.499396,-1.5142 z"
       sodipodi:nodetypes="sssscsssscsssssscssssscssssssscssssssssssssssssssssssssssssccsscsssscsssssssssssssssscssssssssssssssssssssssssssssccccssscsccccccscscccsscsssccssccsssssccccsssccsccccssssscssssscsssccccssssscccccssssssscsssscsssssscssssscssssssscssssssssssssscscssscssscsssssssscsscccccsssssssssscssccsssssssssscccsssscssscssssssscccccsssssssssssssssscsssssssscsssssssssssssssssssssssssssssssssssscccsssssssssssssscsssssssscssssssssssssssssssssssscscssssssssscsscccccscccsssssscsssscscsssssssssssssssscssscccscsscsscssscccccsscssscccsssssssscsssscssssscsssssssssssscsssssssssssssssssssssssss" />
  </g>
</svg>
